<svg xmlns="http://www.w3.org/2000/svg" viewBox="0 0 176 93.45"><defs><style>.cls-1{fill:#1d1d1b;}</style></defs><g id="Слой_2" data-name="Слой 2"><g id="Слой_2-2" data-name="Слой 2"><path class="cls-1" d="M38.79,71.32A13.59,13.59,0,0,1,27.23,58.93c-.39-7.16,5.51-12.79,10.13-13.54.4-.07.16,0,2.09-.11,5.85-.36,8.77-.54,10.19-1.76,1.8-1.56.52-2.88,2.59-6.22.84-1.36,2.57-4.43,5.77-5.12a7.21,7.21,0,0,1,4.64.64,31,31,0,0,0,6.7,1.26,30.66,30.66,0,0,0,6.72-.23l2.75-.68L146.52,13a8.42,8.42,0,0,1,5.16-1.53c4.66.25,7,4.61,7.18,4.87l5.41-.2a7.44,7.44,0,0,0,0-3.22c-.91-3.75-4.59-5.36-5.12-5.58l.12-3.13-2.18-.13L141.28,9.25l.45,1.57L74.84,29a8.61,8.61,0,0,1-2,.1,3.89,3.89,0,0,1-2.27-.57,2.87,2.87,0,0,1-1.12-1.74,3,3,0,0,1,0-1,7,7,0,0,1,.69-2.1,8.42,8.42,0,0,0,1.08-3.59,7.85,7.85,0,0,0-2-5.9,8,8,0,0,0-5.69-2c-7-.25-12,6.43-13,7.63-2.25,1.52-4.67,2.63-7,4a36.33,36.33,0,0,1-11.14.44c-6.38-.88-8.33-2.86-13.26-3.36-.73-.07-10.24-.92-15.36,4-8.21,7.83-1.93,27.29,6.44,38.23,3,3.89,7.8,10.2,15.94,11.14A20.45,20.45,0,0,0,38.79,71.32Z"/><circle class="cls-1" cx="143.84" cy="5.56" r="1.82"/><circle class="cls-1" cx="149.13" cy="3.74" r="1.82"/><circle class="cls-1" cx="154.05" cy="1.82" r="1.82"/><path d="M56.88,67.27a11.58,11.58,0,0,1-3.05,1.29A14.77,14.77,0,0,1,50,69a10.37,10.37,0,0,1-7.15-2.37q-2.67-2.37-2.67-7.11a10.05,10.05,0,0,1,2.71-7.2,9.79,9.79,0,0,1,7.5-2.88,16.19,16.19,0,0,1,6.49,1.27L55.55,54A14.39,14.39,0,0,0,53,53.27,13.6,13.6,0,0,0,50.39,53a5.58,5.58,0,0,0-4.19,1.59,6.54,6.54,0,0,0-1.54,4.73A6.16,6.16,0,0,0,46.2,64a5.53,5.53,0,0,0,4,1.47,8.15,8.15,0,0,0,1.37-.1,4.19,4.19,0,0,0,1-.31V61.33H48.84V57.92h8Z"/><path d="M78,60.51c0,2.84-.67,5-2,6.39S72.7,69,70.06,69A7.53,7.53,0,0,1,64.28,67q-1.92-2.08-1.92-6.28V49.79h4.27v11a5.5,5.5,0,0,0,.9,3.44,3.22,3.22,0,0,0,2.69,1.15,3.16,3.16,0,0,0,2.64-1.11,5.33,5.33,0,0,0,.88-3.32V49.79H78Z"/><path d="M88.39,68.69H84.13V49.79h4.26Z"/><path d="M108,53.26h-5.39V68.69H98.31V53.26H93V49.79h15Z"/><path d="M108.64,68.69l6.89-18.9h5l6.72,18.9h-4.64l-1.28-3.94h-6.86l-1.26,3.94Zm6.81-7.26h4.94l-2.08-6.57c-.08-.26-.15-.48-.19-.67a5.79,5.79,0,0,1-.13-.71h-.1c0,.26-.09.49-.14.69s-.11.41-.19.64Z"/><path d="M147,68.69h-4.81L139.71,64a6.56,6.56,0,0,0-1.22-1.71,2.29,2.29,0,0,0-1.4-.66h-1.15v7h-4.26V49.79h6.75a8.36,8.36,0,0,1,5.17,1.34,4.78,4.78,0,0,1,1.72,4,5,5,0,0,1-1.11,3.25,6.43,6.43,0,0,1-3,2v.05a3.57,3.57,0,0,1,1.57,1.11A10.7,10.7,0,0,1,144,63.32ZM135.94,53v5.47h1.85a3,3,0,0,0,2.21-.83,2.77,2.77,0,0,0,.83-2.06,2.42,2.42,0,0,0-.73-1.93,3.33,3.33,0,0,0-2.23-.65Z"/><path d="M63.5,91.69,64.58,90a8.58,8.58,0,0,0,2.32,1.1,9.48,9.48,0,0,0,2.7.34,4.7,4.7,0,0,0,2.84-.81,2.75,2.75,0,0,0,1.11-2.37,2.79,2.79,0,0,0-.94-2.21,10.06,10.06,0,0,0-3.09-1.61,11.39,11.39,0,0,1-4-2.17,4.13,4.13,0,0,1-1.28-3.18A4.73,4.73,0,0,1,66,75.35a6.5,6.5,0,0,1,4.39-1.44,11.42,11.42,0,0,1,2.48.27,12.5,12.5,0,0,1,2.5.88l-.83,1.78a10.46,10.46,0,0,0-2.1-.72,10.27,10.27,0,0,0-2.21-.23,4.19,4.19,0,0,0-2.69.8,2.68,2.68,0,0,0-1,2.21,2.4,2.4,0,0,0,.91,2,10.77,10.77,0,0,0,3,1.51,11,11,0,0,1,4.09,2.29,4.67,4.67,0,0,1,1.24,3.42,5,5,0,0,1-1.66,3.83,6.65,6.65,0,0,1-4.67,1.53A11,11,0,0,1,66.33,93,10.85,10.85,0,0,1,63.5,91.69Z"/><path d="M94.81,92.19a11.89,11.89,0,0,1-5.51,1.26,8.56,8.56,0,0,1-6.66-2.6A9.67,9.67,0,0,1,80.26,84a10.13,10.13,0,0,1,2.66-7.38,9.2,9.2,0,0,1,6.92-2.75A11.36,11.36,0,0,1,94.76,75l-.82,1.82a10.09,10.09,0,0,0-2-.67,10.8,10.8,0,0,0-2.11-.2,6.78,6.78,0,0,0-5.28,2.14,8.33,8.33,0,0,0-2,5.85,7.83,7.83,0,0,0,1.88,5.51,6.43,6.43,0,0,0,5,2,9.89,9.89,0,0,0,2.25-.25,10.06,10.06,0,0,0,2.25-.82Z"/><path d="M114.45,93.14h-2.21V84.51h-9.78v8.63h-2.22V74.23h2.22v8.29h9.78V74.23h2.21Z"/><path d="M129.05,93.45a8.3,8.3,0,0,1-6.44-2.65,9.82,9.82,0,0,1-2.42-6.89,10.44,10.44,0,0,1,2.47-7.28,8.61,8.61,0,0,1,6.71-2.72,8.12,8.12,0,0,1,6.31,2.64,9.9,9.9,0,0,1,2.39,6.9,10.45,10.45,0,0,1-2.45,7.31A8.43,8.43,0,0,1,129.05,93.45Zm0-2a6.23,6.23,0,0,0,4.91-2,8.32,8.32,0,0,0,1.79-5.68A8.67,8.67,0,0,0,134,78a6,6,0,0,0-4.8-2,6.09,6.09,0,0,0-4.84,2.15,9.53,9.53,0,0,0,0,11.26A5.9,5.9,0,0,0,129.05,91.46Z"/><path d="M151.43,93.45A8.3,8.3,0,0,1,145,90.8a9.82,9.82,0,0,1-2.42-6.89A10.44,10.44,0,0,1,145,76.63a8.61,8.61,0,0,1,6.71-2.72,8.12,8.12,0,0,1,6.31,2.64,9.9,9.9,0,0,1,2.39,6.9A10.45,10.45,0,0,1,158,90.76,8.43,8.43,0,0,1,151.43,93.45Zm0-2a6.23,6.23,0,0,0,4.91-2,8.32,8.32,0,0,0,1.79-5.68A8.67,8.67,0,0,0,156.39,78a6,6,0,0,0-4.8-2,6.09,6.09,0,0,0-4.84,2.15,9.53,9.53,0,0,0,0,11.26A5.9,5.9,0,0,0,151.43,91.46Z"/><path d="M176,93.14h-9.81V74.23h2.22v16.9H176Z"/></g></g></svg>