<svg width="218" height="225" viewBox="0 0 218 225" fill="none" xmlns="http://www.w3.org/2000/svg">
<path fill-rule="evenodd" clip-rule="evenodd" d="M214.472 140.376C213.873 142.732 213.201 145.059 212.459 147.352L71.1383 6.94299C73.3444 6.10327 75.5843 5.33472 77.8551 4.64026L214.472 140.376ZM63.8119 10.0496C65.8797 9.08032 67.9822 8.17554 70.1169 7.33777L212.11 148.415C211.367 150.636 210.558 152.826 209.685 154.982L63.8119 10.0496ZM216.301 131.807C215.865 134.317 215.348 136.797 214.753 139.245L78.9449 4.31348C81.3067 3.61877 83.7013 3.00391 86.1258 2.47192L216.301 131.807ZM62.8518 10.5054L209.274 155.983C208.401 158.082 207.468 160.148 206.476 162.179L56.9206 13.5884C58.8626 12.501 60.8405 11.4725 62.8518 10.5054ZM56.0168 14.1001L206.008 163.124C205.015 165.109 203.966 167.061 202.863 168.975L50.4314 17.527C52.2569 16.3296 54.1194 15.1865 56.0168 14.1001ZM194.517 181.454C195.826 179.755 197.088 178.016 198.301 176.238L43.5198 22.4553C41.832 23.7605 40.1823 25.1147 38.5727 26.5162L194.517 181.454ZM44.321 21.8416L198.872 175.395C200.08 173.59 201.237 171.747 202.343 169.868L49.5803 18.0909C47.7901 19.2893 46.0363 20.5402 44.321 21.8416ZM189.145 187.912C187.725 189.494 186.262 191.033 184.757 192.529L28.1272 36.9095C29.5316 35.3136 30.9801 33.7594 32.4708 32.249L189.145 187.912ZM173.603 202.219C175.306 200.929 176.971 199.59 178.596 198.203L22.8138 43.4258C21.5196 45.1406 20.2727 46.8953 19.0753 48.6875L173.603 202.219ZM23.4251 42.6235L179.356 197.549C180.959 196.155 182.523 194.715 184.044 193.23L27.4685 37.6648C26.0754 39.2769 24.727 40.9304 23.4251 42.6235ZM166.629 207.085C164.787 208.266 162.908 209.393 160.994 210.462L11.4808 61.9136C12.4566 59.9116 13.489 57.944 14.576 56.0127L166.629 207.085ZM146.765 217.097C148.919 216.279 151.041 215.394 153.129 214.443L7.87431 70.1257C7.02028 72.3011 6.2308 74.5105 5.50832 76.7511L146.765 217.097ZM8.27647 69.1156L154.098 213.996C156.127 213.047 158.122 212.036 160.082 210.966L11.0216 62.8669C10.0467 64.9155 9.13093 66.9991 8.27647 69.1156ZM137.852 220.036C135.465 220.707 133.045 221.297 130.596 221.803L1.47739 93.5177C1.88686 90.984 2.3791 88.479 2.95117 86.0059L137.852 220.036ZM111.864 223.964C114.716 223.888 117.541 223.7 120.334 223.403L0.266396 104.11C0.0897827 106.717 0 109.348 0 112.002C0 112.276 0.000961304 112.55 0.00287628 112.824L111.864 223.964ZM0.362892 102.796L121.609 223.26C124.241 222.949 126.844 222.541 129.416 222.04L1.2869 94.738C0.88694 97.3944 0.577812 100.082 0.362892 102.796ZM110.473 223.992C109.983 223.998 109.492 224.002 109 224.002C106.364 224.002 103.751 223.905 101.162 223.716L0.597687 123.801C0.27713 120.655 0.083313 117.47 0.0215759 114.252L110.473 223.992ZM99.6185 223.593L0.769768 125.381C1.1905 129.013 1.78033 132.591 2.53096 136.108L89.1268 222.145C92.5701 222.797 96.0701 223.282 99.6185 223.593ZM2.93243 137.916L87.3545 221.793C83.1172 220.916 78.9688 219.786 74.9249 218.42L6.6357 150.571C5.16818 146.461 3.92852 142.237 2.93243 137.916ZM7.45644 152.797L72.734 217.653C66.818 215.509 61.136 212.855 55.7381 209.743L15.7306 169.994C12.5168 164.548 9.74191 158.798 7.45644 152.797ZM17.9688 173.627C26.7863 187.351 38.4645 198.964 52.1307 207.568L17.9688 173.627ZM138.952 219.72L3.22137 84.8646C3.79733 82.4865 4.44727 80.1384 5.16852 77.8231L145.734 217.482C143.506 218.301 141.245 219.048 138.952 219.72ZM167.488 206.529L15.0883 55.1121C16.1777 53.2175 17.3198 51.3589 18.5126 49.5381L172.795 202.825C171.064 204.111 169.294 205.347 167.488 206.529ZM189.811 187.164L33.1764 31.5405C34.6829 30.0414 36.2313 28.5864 37.8198 27.1779L193.899 182.25C192.582 183.929 191.218 185.567 189.811 187.164ZM216.504 130.599C216.931 127.972 217.27 125.314 217.516 122.629L95.0122 0.915283C92.4095 1.25781 89.8356 1.6947 87.2937 2.22253L216.504 130.599ZM217.563 101.904C217.833 105.005 217.979 108.143 217.998 111.312L106.006 0.0429688C107.001 0.0153809 107.999 0.00158691 109 0.00158691C111.073 0.00158691 113.132 0.0610352 115.177 0.178345L217.563 101.904ZM96.2717 0.75708C99.0293 0.42749 101.818 0.203735 104.635 0.0897217L217.998 112.722C217.98 115.618 217.855 118.489 217.627 121.33L96.2717 0.75708ZM215.865 89.8308C216.539 93.2822 217.059 96.7911 217.417 100.349L116.694 0.276367C120.17 0.525391 123.6 0.941772 126.978 1.51782L215.865 89.8308ZM215.505 88.0636C214.617 83.8757 213.502 79.7754 212.173 75.7769L140.768 4.83301C136.838 3.60449 132.814 2.59802 128.709 1.82776L215.505 88.0636ZM202.456 54.3279C192.625 37.5441 178.633 23.6254 161.946 14.0792L202.456 54.3279ZM142.874 5.51538C148.378 7.36267 153.689 9.64807 158.768 12.3313L204.265 57.5347C207.05 62.667 209.454 68.0477 211.437 73.6365L142.874 5.51538Z" fill="url(#paint0_linear_16_92)" fill-opacity="0.5"/>
<defs>
<linearGradient id="paint0_linear_16_92" x1="47.8939" y1="19.941" x2="177.569" y2="198.622" gradientUnits="userSpaceOnUse">
<stop stop-color="#F57849"/>
<stop offset="0.536458" stop-color="#3F84E9"/>
<stop offset="1" stop-color="#2B2B2B"/>
</linearGradient>
</defs>
</svg>
